<svg xmlns="http://www.w3.org/2000/svg" width="45" height="44" viewBox="0 0 45 44" fill="none">
<path d="M22.7041 44C10.5595 44 0.600983 34.1685 0.600983 22C0.600983 9.91209 10.4786 0 22.7041 0C34.8487 0 44.8073 9.8315 44.8073 22C44.8073 34.0879 34.9297 44 22.7041 44ZM22.7041 2.337C11.855 2.337 2.94894 11.1209 2.94894 22C2.94894 32.7985 11.774 41.663 22.7041 41.663C33.5533 41.663 42.4593 32.8791 42.4593 22C42.4593 11.2015 33.5533 2.337 22.7041 2.337Z" fill="white"/>
<path fill-rule="evenodd" clip-rule="evenodd" d="M19.2227 22.0806V34.8132C19.2227 34.9744 19.3846 35.1355 19.5465 35.1355H24.3234C24.4853 35.1355 24.6473 34.9744 24.6473 34.8132V21.9194H28.1287C28.2906 21.9194 28.4526 21.7583 28.4526 21.5971L28.7764 17.729C28.7764 17.5678 28.6145 17.4066 28.4526 17.4066H24.6473V14.6667C24.6473 14.022 25.214 13.4579 25.8617 13.4579H28.5335C28.6954 13.4579 28.8574 13.2967 28.8574 13.1355V9.26741C28.8574 9.10624 28.6954 8.94507 28.5335 8.94507H24.0805C21.4087 8.94507 19.3036 11.0403 19.3036 13.6996V17.4872H16.8747C16.7128 17.4872 16.5509 17.6484 16.5509 17.8095V21.6777C16.5509 21.8388 16.7128 22 16.8747 22H19.2227V22.0806Z" fill="white"/>
</svg>