<svg width="88" height="29" viewBox="0 0 88 29" fill="none" xmlns="http://www.w3.org/2000/svg">
<g clip-path="url(#clip0_1280_10971)">
<path d="M0 22.7948C1.841 23.9345 3.80474 24.821 6.01395 24.821C7.97769 24.821 10.3096 23.6812 10.3096 20.3886C10.3096 18.2358 9.08229 15.8297 4.66388 15.8297V12.0306C7.85495 12.0306 10.0642 11.0175 10.0642 7.85153C10.0642 5.95196 8.83682 3.67249 5.40028 3.67249C3.31381 3.67249 1.71827 4.55895 0.736402 5.0655V1.26638C2.45467 0.253275 4.17294 0 5.89121 0C10.3096 0 13.8689 2.40611 13.8689 7.47162C13.8689 11.524 11.6597 12.917 10.4324 13.5502C13.378 14.5633 14.3598 17.6026 14.3598 20.1354C14.3598 25.3275 10.4324 28.6201 6.13668 28.6201C4.78661 28.6201 2.70014 28.3668 0.122734 26.9738V22.7948H0Z" fill="#F1ECE7"/>
<path d="M34.4881 14.31C34.4881 23.1747 30.6834 28.7467 25.7741 28.7467C20.742 28.7467 17.06 23.3013 17.06 14.4367C16.9372 4.81223 21.4784 0 25.8968 0C30.6834 0 34.4881 5.82533 34.4881 14.31ZM20.8647 14.31C20.8647 22.9214 23.6876 24.9476 25.6513 24.9476C27.7378 24.9476 30.5607 22.7948 30.5607 14.4367C30.5607 4.93886 26.8787 3.79913 25.6513 3.79913C23.3194 3.79913 20.8647 6.58515 20.8647 14.31Z" fill="#F1ECE7"/>
<path d="M43.2022 3.41921C43.2022 4.93887 41.9749 6.20524 40.5021 6.20524C39.0293 6.20524 37.802 4.93887 37.802 3.41921C37.802 1.89956 39.0293 0.633188 40.5021 0.633188C41.9749 0.633188 43.2022 1.77293 43.2022 3.41921ZM39.5202 13.1703H38.4156L47.2524 0.759826H48.357L39.5202 13.1703ZM42.2204 3.41921C42.2204 2.40611 41.484 1.64629 40.5021 1.64629C39.5202 1.64629 38.7838 2.40611 38.7838 3.41921C38.7838 4.43231 39.5202 5.19214 40.5021 5.19214C41.484 5.19214 42.2204 4.43231 42.2204 3.41921ZM49.0934 10.5109C49.0934 12.0306 47.8661 13.2969 46.3933 13.2969C44.9205 13.2969 43.6932 12.0306 43.6932 10.5109C43.6932 8.99127 44.9205 7.72489 46.3933 7.72489C47.8661 7.59825 49.0934 8.86463 49.0934 10.5109ZM47.9888 10.5109C47.9888 9.49782 47.2524 8.73799 46.2706 8.73799C45.2887 8.73799 44.5523 9.49782 44.5523 10.5109C44.5523 11.524 45.2887 12.2838 46.2706 12.2838C47.2524 12.2838 47.9888 11.3974 47.9888 10.5109Z" fill="#F1ECE7"/>
<path d="M52.1618 6.96507C52.1618 3.67249 54.4937 0.633188 58.5439 0.633188C62.4714 0.633188 65.0488 3.67249 65.0488 6.96507C65.0488 10.6376 62.1032 13.2969 58.5439 13.2969C54.9847 13.2969 52.1618 10.6376 52.1618 6.96507ZM63.576 6.83843C63.576 4.43232 61.735 1.77293 58.5439 1.77293C55.4756 1.77293 53.5119 4.17904 53.5119 6.83843C53.5119 9.87773 55.8438 11.9039 58.4212 11.9039C61.3668 12.0306 63.576 9.87773 63.576 6.83843Z" fill="#F1ECE7"/>
<path d="M75.3584 1.89956H70.4491V5.95196H75.113V7.21834H70.4491V13.1703H69.099V0.759825H75.3584V1.89956Z" fill="#F1ECE7"/>
<path d="M85.1771 1.89956H80.2678V5.95196H84.9317V7.21834H80.2678V13.1703H78.9177V0.759825H85.1771V1.89956Z" fill="#F1ECE7"/>
<path d="M43.9386 19.6288H39.3975V23.3013H43.6932V24.3144H39.3975V27.9869H44.0614V29H38.2929V18.6157H43.9386V19.6288Z" fill="#F1ECE7"/>
<path d="M51.9163 23.6812L56.3347 29H54.9847L51.3027 24.441L47.4979 29H46.1478L50.5663 23.6812L46.3933 18.6157H47.7434L51.1799 22.7948L54.6165 18.6157H55.9665L51.9163 23.6812Z" fill="#F1ECE7"/>
<path d="M66.2762 19.6288H62.5941V29H61.4895V19.6288H57.8075V18.6157H66.2762V19.6288Z" fill="#F1ECE7"/>
<path d="M71.7992 18.6157C74.3766 18.6157 75.113 20.1354 75.113 21.4017C75.113 22.7948 74.2538 23.5546 73.272 23.9345C74.0084 24.4411 74.4993 25.2009 75.7266 27.2271C76.0948 27.9869 76.3403 28.2402 76.8312 29H75.4812L74.4993 27.4804C74.1311 26.8472 73.6402 26.214 73.1492 25.5808C72.5356 24.6943 71.9219 24.3144 70.8173 24.3144H70.0809V29H68.9763V18.6157H71.7992ZM70.3264 19.6288V23.3013H71.6764C73.1492 23.3013 74.0084 22.6681 74.0084 21.5284C74.0084 20.3886 73.272 19.7555 71.6764 19.7555H70.3264V19.6288Z" fill="#F1ECE7"/>
<path d="M88 29H86.8954L85.4226 25.7074H80.8815L79.4086 29H78.304L82.7225 18.6157H83.4589L88 29ZM83.0907 20.3886L81.2497 24.6943H84.9317L83.0907 20.3886Z" fill="#F1ECE7"/>
</g>
<defs>
<clipPath id="clip0_1280_10971">
<rect width="88" height="29" fill="white"/>
</clipPath>
</defs>
</svg>
