<svg width="57" height="33" viewBox="0 0 57 33" fill="none" xmlns="http://www.w3.org/2000/svg">
<g clip-path="url(#clip0_1280_10984)">
<path d="M41.5473 23.1579C41.5473 22.8684 41.5473 22.7237 41.5473 22.5789C41.5473 16.9342 41.5473 11.2895 41.5473 5.5C41.5473 4.63158 41.6931 4.48684 42.5678 4.48684C44.7545 4.48684 46.9412 4.48684 49.1279 4.48684C49.5652 4.48684 49.8568 4.63158 50.0026 5.06579C51.4604 8.10526 52.9182 11.1447 54.376 14.1842C54.5217 14.3289 54.5217 14.6184 54.5217 14.9079C54.5217 17.3684 54.5217 19.8289 54.5217 22.2895C54.5217 23.0132 54.6675 23.1579 55.5422 23.1579C57 23.1579 57 23.1579 57 24.6053C57 25.6184 57 26.6316 57 27.6447C57 28.2237 56.8542 28.3684 56.2711 28.5132C55.5422 28.5132 54.8133 28.5132 54.0844 28.5132C53.6471 28.5132 53.5013 28.3684 53.3555 27.9342C52.6266 25.4737 50.4399 24.0263 47.9616 24.0263C45.4834 24.0263 43.2967 25.4737 42.5678 27.9342C42.422 28.3684 42.1304 28.5132 41.6931 28.5132C37.1739 28.5132 32.8005 28.5132 28.2813 28.5132C27.844 28.5132 27.6982 28.3684 27.5524 27.9342C26.6778 25.4737 24.6368 24.0263 22.1586 24.0263C19.6803 24.0263 17.6394 25.4737 16.7647 27.9342C16.6189 28.2237 16.4731 28.5132 16.1816 28.5132C15.1611 28.5132 14.1407 28.5132 12.9744 28.5132C12.9744 27.6447 12.9744 26.9211 12.9744 26.1974C12.9744 25.4737 12.9744 24.75 12.9744 24.1711C12.9744 23.4474 13.1202 23.1579 13.8491 23.1579C18.3683 23.1579 22.8875 23.1579 27.4067 23.1579C31.9258 23.1579 36.445 23.1579 40.9642 23.1579C41.2558 23.1579 41.4015 23.1579 41.5473 23.1579ZM47.5243 14.4737C48.6905 14.4737 49.8568 14.4737 51.023 14.4737C51.6061 14.4737 51.7519 14.1842 51.6061 13.6053C50.5857 11.2895 49.5652 8.97368 48.5448 6.6579C48.399 6.36842 48.1074 6.22368 47.8159 6.22368C46.6496 6.22368 45.3376 6.22368 44.1714 6.22368C43.734 6.22368 43.5882 6.36842 43.5882 6.80263C43.5882 9.11842 43.5882 11.4342 43.5882 13.75C43.5882 14.3289 43.734 14.4737 44.3171 14.4737C45.3376 14.4737 46.3581 14.4737 47.5243 14.4737ZM22.1586 26.1974C20.2634 26.1974 18.6598 27.7895 18.6598 29.6711C18.6598 31.5526 20.2634 33 22.0128 33C23.9079 33 25.3657 31.4079 25.3657 29.5263C25.5115 27.7895 24.0537 26.1974 22.1586 26.1974ZM47.8159 26.1974C45.9207 26.1974 44.3171 27.6447 44.3171 29.5263C44.3171 31.4079 45.9207 33 47.6701 33C49.5652 33 51.023 31.4079 51.023 29.5263C51.1688 27.7895 49.711 26.1974 47.8159 26.1974ZM10.4962 27.9342C10.4962 27.5 10.2046 27.2105 9.76726 27.2105H0.7289C0.29156 27.2105 0 27.5 0 27.9342C0 28.3684 0.29156 28.6579 0.7289 28.6579H9.91304C10.2046 28.5132 10.4962 28.2237 10.4962 27.9342ZM10.4962 21.4211C10.4962 20.9868 10.2046 20.6974 9.76726 20.6974H0.7289C0.29156 20.6974 0 20.9868 0 21.4211C0 21.8553 0.29156 22.1447 0.7289 22.1447H9.91304C10.2046 22 10.4962 21.7105 10.4962 21.4211ZM10.4962 14.9079C10.4962 14.4737 10.2046 14.1842 9.76726 14.1842H0.7289C0.29156 14.1842 0 14.4737 0 14.9079C0 15.3421 0.29156 15.6316 0.7289 15.6316H9.91304C10.2046 15.6316 10.4962 15.1974 10.4962 14.9079ZM5.24808 8.39474C5.24808 7.96053 4.95652 7.67105 4.51918 7.67105H0.7289C0.29156 7.81579 0 8.10526 0 8.39474C0 8.68421 0.29156 9.11842 0.7289 9.11842H4.66496C4.95652 9.11842 5.24808 8.82895 5.24808 8.39474ZM5.24808 1.88158C5.24808 1.44737 4.95652 1.15789 4.51918 1.15789H0.7289C0.29156 1.30263 0 1.59211 0 1.88158C0 2.17105 0.29156 2.60526 0.7289 2.60526H4.66496C4.95652 2.60526 5.24808 2.31579 5.24808 1.88158ZM36.1535 0H16.1816C14.4322 0 13.1202 1.44737 13.1202 3.03947V17.6579C13.1202 19.3947 14.578 20.6974 16.1816 20.6974H36.1535C37.9028 20.6974 39.2148 19.25 39.2148 17.6579V3.03947C39.2148 1.44737 37.9028 0 36.1535 0Z" fill="#F1ECE7"/>
</g>
<defs>
<clipPath id="clip0_1280_10984">
<rect width="57" height="33" fill="white"/>
</clipPath>
</defs>
</svg>
