<svg xmlns="http://www.w3.org/2000/svg" xmlns:xlink="http://www.w3.org/1999/xlink" width="50" zoomAndPan="magnify" viewBox="0 0 37.5 37.499999" height="50" preserveAspectRatio="xMidYMid meet" version="1.0"><defs><clipPath id="7203748976"><path d="M 0 0 L 37.007812 0 L 37.007812 37.007812 L 0 37.007812 Z M 0 0 " clip-rule="nonzero"/></clipPath><clipPath id="0deef9c57a"><path d="M 8 4 L 30 4 L 30 33 L 8 33 Z M 8 4 " clip-rule="nonzero"/></clipPath><clipPath id="037fcfcb4a"><path d="M 18.96875 39.148438 L -1.015625 22.664062 L 17.820312 -0.175781 L 37.804688 16.308594 Z M 18.96875 39.148438 " clip-rule="nonzero"/></clipPath><clipPath id="e15b3ed499"><path d="M 18.96875 39.148438 L -1.015625 22.664062 L 17.820312 -0.175781 L 37.804688 16.308594 Z M 18.96875 39.148438 " clip-rule="nonzero"/></clipPath></defs><g clip-path="url(#7203748976)"><path fill="#ffffff" d="M 0 0 L 37.007812 0 L 37.007812 37.007812 L 0 37.007812 Z M 0 0 " fill-opacity="1" fill-rule="nonzero"/><path fill="#000000" d="M 0 0 L 37.007812 0 L 37.007812 37.007812 L 0 37.007812 Z M 0 0 " fill-opacity="1" fill-rule="nonzero"/></g><g clip-path="url(#0deef9c57a)"><g clip-path="url(#037fcfcb4a)"><g clip-path="url(#e15b3ed499)"><path fill="#ffffff" d="M 29.035156 21.246094 C 27.5 28.800781 20.132812 33.679688 12.578125 32.148438 C 11.277344 31.882812 10.058594 31.445312 8.9375 30.867188 C 15.003906 30.402344 20.273438 25.980469 21.542969 19.726562 C 22.816406 13.46875 19.6875 7.339844 14.285156 4.546875 C 15.542969 4.449219 16.835938 4.523438 18.132812 4.789062 C 25.6875 6.324219 30.570312 13.691406 29.035156 21.246094 Z M 29.035156 21.246094 " fill-opacity="1" fill-rule="nonzero"/></g></g></g></svg>