<svg width="45" height="46" viewBox="0 0 45 46" fill="none" xmlns="http://www.w3.org/2000/svg">
<g clip-path="url(#clip0_1280_10945)">
<path d="M21.0268 6.99415L35.625 32.2807C36.4286 33.6257 35.8929 35.5088 34.5536 36.3158L19.5536 44.924C18.2143 45.731 16.3393 45.193 15.5357 43.8479L1.07143 18.5614C0.267862 17.2164 0.803576 15.3333 2.14286 14.5263L17.1429 5.91813C18.4821 5.11111 20.2232 5.51462 21.0268 6.99415Z" fill="#9E8D7B" stroke="#F1ECE7" stroke-width="0.9363" stroke-miterlimit="10"/>
<path d="M3.83912 13.5792L21.2784 44.0049L24.7606 41.9918L7.3214 11.5661L3.83912 13.5792Z" fill="#F1ECE7"/>
<path d="M45 2.95906V32.1462C45 33.7602 43.6607 35.1053 42.0536 35.1053H24.7768C23.1697 35.1053 21.8304 33.7602 21.8304 32.1462V2.95906C21.8304 1.34503 23.1697 0 24.7768 0H42.0536C43.6607 0 45 1.34503 45 2.95906Z" fill="#F1ECE7"/>
<path d="M30.8036 4.5731V10.7602C30.8036 11.5673 30.2679 12.1053 29.4643 12.1053H26.3839C25.5804 12.1053 25.0447 11.5673 25.0447 10.7602V4.5731C25.0447 3.76608 25.5804 3.22807 26.3839 3.22807H29.4643C30.2679 3.22807 30.8036 3.76608 30.8036 4.5731Z" fill="#9E8D7B"/>
<path d="M38.5714 27.5731V24.7485" stroke="#9E8D7B" stroke-width="0.9363" stroke-miterlimit="10"/>
<path d="M38.5714 19.9064V12.7778" stroke="#9E8D7B" stroke-width="0.9363" stroke-miterlimit="10" stroke-dasharray="3.53 3.53"/>
<path d="M38.5714 10.4912V7.53216" stroke="#9E8D7B" stroke-width="0.9363" stroke-miterlimit="10"/>
</g>
<defs>
<clipPath id="clip0_1280_10945">
<rect width="45" height="46" fill="white"/>
</clipPath>
</defs>
</svg>
