<svg xmlns="http://www.w3.org/2000/svg" width="44" height="44" viewBox="0 0 44 44" fill="none">
<path d="M21.9412 43.8388C9.87759 43.8388 0 34.0073 0 22C0 9.91205 9.87759 0.161133 21.9412 0.161133C34.0858 0.161133 43.8824 9.99263 43.8824 22C43.8824 34.0073 34.0858 43.8388 21.9412 43.8388ZM21.9412 2.25637C11.0111 2.25637 2.10506 11.1208 2.10506 22C2.10506 32.8791 11.0111 41.7435 21.9412 41.7435C32.8713 41.7435 41.7773 32.8791 41.7773 22C41.8583 11.1208 32.8713 2.25637 21.9412 2.25637ZM29.3899 13.1355C28.4993 13.1355 27.7706 13.8608 27.7706 14.7472C27.7706 15.6337 28.4993 16.3589 29.3899 16.3589C30.2805 16.3589 31.0092 15.6337 31.0092 14.7472C31.0092 13.8608 30.2805 13.1355 29.3899 13.1355ZM22.1031 15.2307C18.3788 15.2307 15.3022 18.293 15.3022 22C15.3022 25.7069 18.3788 28.7692 22.1031 28.7692C25.8275 28.7692 28.9041 25.7069 28.9041 22C28.9041 18.293 25.9084 15.2307 22.1031 15.2307ZM22.1031 26.3516C19.6742 26.3516 17.7311 24.4175 17.7311 22C17.7311 19.5824 19.6742 17.6483 22.1031 17.6483C24.532 17.6483 26.4752 19.5824 26.4752 22C26.4752 24.4175 24.532 26.3516 22.1031 26.3516ZM35.867 16.3589C35.867 11.7655 32.1427 8.05857 27.5277 8.05857H16.5976C11.9827 8.05857 8.25831 11.7655 8.25831 16.3589V27.3186C8.25831 31.9121 11.9827 35.619 16.5976 35.619H27.6087C32.2236 35.619 35.948 31.9121 35.948 27.3186V16.3589H35.867ZM33.2761 27.3186C33.2761 30.4615 30.6853 33.0403 27.5277 33.0403H16.5976C13.44 33.0403 10.8492 30.4615 10.8492 27.3186V16.3589C10.8492 13.2161 13.44 10.6373 16.5976 10.6373H27.6087C30.7663 10.6373 33.3571 13.2161 33.3571 16.3589V27.3186H33.2761Z" fill="white"/>
</svg>