<svg xmlns="http://www.w3.org/2000/svg" xmlns:xlink="http://www.w3.org/1999/xlink" width="485" zoomAndPan="magnify" viewBox="0 0 363.75 93.749996" height="125" preserveAspectRatio="xMidYMid meet" version="1.0"><defs><g/><clipPath id="ccb569fd89"><path d="M 0.359375 7 L 58 7 L 58 81 L 0.359375 81 Z M 0.359375 7 " clip-rule="nonzero"/></clipPath><clipPath id="8540a01ffe"><path d="M 48.402344 87.945312 L 0.761719 76.433594 L 17.800781 5.925781 L 65.4375 17.4375 Z M 48.402344 87.945312 " clip-rule="nonzero"/></clipPath><clipPath id="f4528ce48d"><path d="M 48.402344 87.945312 L 0.761719 76.433594 L 17.800781 5.925781 L 65.4375 17.4375 Z M 48.402344 87.945312 " clip-rule="nonzero"/></clipPath></defs><g clip-path="url(#ccb569fd89)"><g clip-path="url(#8540a01ffe)"><g clip-path="url(#f4528ce48d)"><path fill="#ffffff" d="M 43.761719 49.363281 C 39.34375 67.652344 20.9375 78.894531 2.648438 74.476562 C 2.066406 74.332031 1.492188 74.175781 0.925781 74.011719 C 4.484375 76.464844 8.550781 78.316406 13.003906 79.390625 C 32.554688 84.117188 52.226562 72.097656 56.949219 52.550781 C 61.671875 33.003906 49.660156 13.332031 30.109375 8.605469 C 25.65625 7.53125 21.191406 7.320312 16.90625 7.875 C 17.488281 7.988281 18.070312 8.113281 18.652344 8.253906 C 36.9375 12.671875 48.179688 31.078125 43.761719 49.363281 " fill-opacity="1" fill-rule="nonzero"/></g></g></g><g fill="#ffffff" fill-opacity="1"><g transform="translate(75.809981, 70.275749)"><g><path d="M 10.984375 0 C 9.316406 0 8.039062 -0.441406 7.15625 -1.328125 C 6.269531 -2.210938 5.828125 -3.488281 5.828125 -5.15625 L 5.828125 -48.25 C 5.828125 -49.90625 6.269531 -51.175781 7.15625 -52.0625 C 8.039062 -52.945312 9.316406 -53.390625 10.984375 -53.390625 L 29.15625 -53.390625 C 32.894531 -53.390625 36.078125 -52.832031 38.703125 -51.71875 C 41.328125 -50.613281 43.332031 -49.023438 44.71875 -46.953125 C 46.101562 -44.878906 46.796875 -42.40625 46.796875 -39.53125 C 46.796875 -36.300781 45.863281 -33.570312 44 -31.34375 C 42.132812 -29.125 39.585938 -27.640625 36.359375 -26.890625 L 36.359375 -28.015625 C 40.085938 -27.460938 42.988281 -26.050781 45.0625 -23.78125 C 47.132812 -21.507812 48.171875 -18.554688 48.171875 -14.921875 C 48.171875 -10.171875 46.566406 -6.492188 43.359375 -3.890625 C 40.148438 -1.296875 35.691406 0 29.984375 0 Z M 15.140625 -7.34375 L 28.78125 -7.34375 C 32.207031 -7.34375 34.726562 -8.007812 36.34375 -9.34375 C 37.96875 -10.6875 38.78125 -12.695312 38.78125 -15.375 C 38.78125 -18.101562 37.96875 -20.125 36.34375 -21.4375 C 34.726562 -22.75 32.207031 -23.40625 28.78125 -23.40625 L 15.140625 -23.40625 Z M 15.140625 -30.75 L 27.484375 -30.75 C 30.816406 -30.75 33.300781 -31.390625 34.9375 -32.671875 C 36.582031 -33.960938 37.40625 -35.867188 37.40625 -38.390625 C 37.40625 -40.921875 36.582031 -42.828125 34.9375 -44.109375 C 33.300781 -45.398438 30.816406 -46.046875 27.484375 -46.046875 L 15.140625 -46.046875 Z M 15.140625 -30.75 "/></g></g></g><g fill="#ffffff" fill-opacity="1"><g transform="translate(127.917641, 70.275749)"><g><path d="M 23.171875 0.75 C 18.984375 0.75 15.375 -0.03125 12.34375 -1.59375 C 9.3125 -3.15625 6.972656 -5.375 5.328125 -8.25 C 3.691406 -11.132812 2.875 -14.546875 2.875 -18.484375 C 2.875 -22.316406 3.671875 -25.671875 5.265625 -28.546875 C 6.859375 -31.429688 9.054688 -33.691406 11.859375 -35.328125 C 14.660156 -36.972656 17.851562 -37.796875 21.4375 -37.796875 C 24.0625 -37.796875 26.421875 -37.363281 28.515625 -36.5 C 30.609375 -35.644531 32.398438 -34.410156 33.890625 -32.796875 C 35.378906 -31.179688 36.515625 -29.222656 37.296875 -26.921875 C 38.078125 -24.628906 38.46875 -22.039062 38.46875 -19.15625 C 38.46875 -18.25 38.148438 -17.554688 37.515625 -17.078125 C 36.890625 -16.597656 36 -16.359375 34.84375 -16.359375 L 10.53125 -16.359375 L 10.53125 -21.8125 L 31.8125 -21.8125 L 30.59375 -20.671875 C 30.59375 -22.992188 30.25 -24.9375 29.5625 -26.5 C 28.882812 -28.070312 27.898438 -29.273438 26.609375 -30.109375 C 25.328125 -30.941406 23.726562 -31.359375 21.8125 -31.359375 C 19.6875 -31.359375 17.878906 -30.863281 16.390625 -29.875 C 14.898438 -28.894531 13.765625 -27.503906 12.984375 -25.703125 C 12.203125 -23.910156 11.8125 -21.78125 11.8125 -19.3125 L 11.8125 -18.78125 C 11.8125 -14.644531 12.78125 -11.550781 14.71875 -9.5 C 16.664062 -7.457031 19.535156 -6.4375 23.328125 -6.4375 C 24.640625 -6.4375 26.113281 -6.597656 27.75 -6.921875 C 29.394531 -7.253906 30.953125 -7.828125 32.421875 -8.640625 C 33.472656 -9.242188 34.398438 -9.503906 35.203125 -9.421875 C 36.015625 -9.347656 36.660156 -9.054688 37.140625 -8.546875 C 37.628906 -8.046875 37.921875 -7.429688 38.015625 -6.703125 C 38.117188 -5.972656 37.976562 -5.226562 37.59375 -4.46875 C 37.21875 -3.707031 36.578125 -3.050781 35.671875 -2.5 C 33.898438 -1.382812 31.863281 -0.5625 29.5625 -0.03125 C 27.269531 0.488281 25.140625 0.75 23.171875 0.75 Z M 23.171875 0.75 "/></g></g></g><g fill="#ffffff" fill-opacity="1"><g transform="translate(168.967575, 70.275749)"><g><path d="M 19.15625 0.75 C 15.925781 0.75 13.085938 -0.03125 10.640625 -1.59375 C 8.191406 -3.15625 6.285156 -5.382812 4.921875 -8.28125 C 3.554688 -11.1875 2.875 -14.613281 2.875 -18.5625 C 2.875 -22.539062 3.554688 -25.957031 4.921875 -28.8125 C 6.285156 -31.664062 8.191406 -33.875 10.640625 -35.4375 C 13.085938 -37.007812 15.925781 -37.796875 19.15625 -37.796875 C 22.238281 -37.796875 24.925781 -37.035156 27.21875 -35.515625 C 29.519531 -34.003906 31.078125 -32.007812 31.890625 -29.53125 L 31.046875 -29.53125 L 31.046875 -49.234375 C 31.046875 -50.796875 31.445312 -51.976562 32.25 -52.78125 C 33.0625 -53.59375 34.226562 -54 35.75 -54 C 37.257812 -54 38.429688 -53.59375 39.265625 -52.78125 C 40.097656 -51.976562 40.515625 -50.796875 40.515625 -49.234375 L 40.515625 -4.234375 C 40.515625 -2.671875 40.109375 -1.472656 39.296875 -0.640625 C 38.492188 0.191406 37.335938 0.609375 35.828125 0.609375 C 34.304688 0.609375 33.140625 0.191406 32.328125 -0.640625 C 31.523438 -1.472656 31.125 -2.671875 31.125 -4.234375 L 31.125 -10.140625 L 31.953125 -7.875 C 31.203125 -5.25 29.664062 -3.15625 27.34375 -1.59375 C 25.019531 -0.03125 22.289062 0.75 19.15625 0.75 Z M 21.8125 -6.4375 C 23.675781 -6.4375 25.316406 -6.890625 26.734375 -7.796875 C 28.148438 -8.703125 29.25 -10.050781 30.03125 -11.84375 C 30.8125 -13.644531 31.203125 -15.882812 31.203125 -18.5625 C 31.203125 -22.59375 30.34375 -25.601562 28.625 -27.59375 C 26.90625 -29.59375 24.632812 -30.59375 21.8125 -30.59375 C 19.945312 -30.59375 18.304688 -30.148438 16.890625 -29.265625 C 15.472656 -28.390625 14.375 -27.050781 13.59375 -25.25 C 12.8125 -23.457031 12.421875 -21.226562 12.421875 -18.5625 C 12.421875 -14.570312 13.28125 -11.550781 15 -9.5 C 16.71875 -7.457031 18.988281 -6.4375 21.8125 -6.4375 Z M 21.8125 -6.4375 "/></g></g></g><g fill="#ffffff" fill-opacity="1"><g transform="translate(214.410308, 70.275749)"><g><path d="M 10.828125 0.609375 C 9.265625 0.609375 8.039062 0.164062 7.15625 -0.71875 C 6.269531 -1.601562 5.828125 -2.878906 5.828125 -4.546875 L 5.828125 -48.25 C 5.828125 -49.90625 6.269531 -51.175781 7.15625 -52.0625 C 8.039062 -52.945312 9.316406 -53.390625 10.984375 -53.390625 L 37.40625 -53.390625 C 38.71875 -53.390625 39.703125 -53.0625 40.359375 -52.40625 C 41.015625 -51.75 41.34375 -50.816406 41.34375 -49.609375 C 41.34375 -48.347656 41.015625 -47.375 40.359375 -46.6875 C 39.703125 -46.007812 38.71875 -45.671875 37.40625 -45.671875 L 15.53125 -45.671875 L 15.53125 -30.59375 L 35.828125 -30.59375 C 37.085938 -30.59375 38.054688 -30.265625 38.734375 -29.609375 C 39.421875 -28.953125 39.765625 -28.019531 39.765625 -26.8125 C 39.765625 -25.550781 39.421875 -24.578125 38.734375 -23.890625 C 38.054688 -23.210938 37.085938 -22.875 35.828125 -22.875 L 15.53125 -22.875 L 15.53125 -4.546875 C 15.53125 -1.109375 13.960938 0.609375 10.828125 0.609375 Z M 10.828125 0.609375 "/></g></g></g><g fill="#ffffff" fill-opacity="1"><g transform="translate(256.974989, 70.275749)"><g><path d="M 21.8125 0.75 C 17.976562 0.75 14.644531 -0.03125 11.8125 -1.59375 C 8.988281 -3.15625 6.789062 -5.382812 5.21875 -8.28125 C 3.65625 -11.1875 2.875 -14.613281 2.875 -18.5625 C 2.875 -21.53125 3.316406 -24.1875 4.203125 -26.53125 C 5.085938 -28.882812 6.363281 -30.90625 8.03125 -32.59375 C 9.695312 -34.289062 11.691406 -35.582031 14.015625 -36.46875 C 16.335938 -37.351562 18.9375 -37.796875 21.8125 -37.796875 C 25.644531 -37.796875 28.972656 -37.007812 31.796875 -35.4375 C 34.628906 -33.875 36.828125 -31.65625 38.390625 -28.78125 C 39.960938 -25.90625 40.75 -22.5 40.75 -18.5625 C 40.75 -15.582031 40.304688 -12.90625 39.421875 -10.53125 C 38.535156 -8.15625 37.257812 -6.117188 35.59375 -4.421875 C 33.925781 -2.734375 31.929688 -1.445312 29.609375 -0.5625 C 27.285156 0.3125 24.6875 0.75 21.8125 0.75 Z M 21.8125 -6.4375 C 23.675781 -6.4375 25.316406 -6.890625 26.734375 -7.796875 C 28.148438 -8.703125 29.25 -10.050781 30.03125 -11.84375 C 30.8125 -13.644531 31.203125 -15.882812 31.203125 -18.5625 C 31.203125 -22.59375 30.34375 -25.601562 28.625 -27.59375 C 26.90625 -29.59375 24.632812 -30.59375 21.8125 -30.59375 C 19.945312 -30.59375 18.304688 -30.148438 16.890625 -29.265625 C 15.472656 -28.390625 14.375 -27.050781 13.59375 -25.25 C 12.8125 -23.457031 12.421875 -21.226562 12.421875 -18.5625 C 12.421875 -14.570312 13.28125 -11.550781 15 -9.5 C 16.71875 -7.457031 18.988281 -6.4375 21.8125 -6.4375 Z M 21.8125 -6.4375 "/></g></g></g><g fill="#ffffff" fill-opacity="1"><g transform="translate(300.600006, 70.275749)"><g><path d="M 9.765625 0.609375 C 8.203125 0.609375 7.003906 0.191406 6.171875 -0.640625 C 5.335938 -1.472656 4.921875 -2.671875 4.921875 -4.234375 L 4.921875 -32.875 C 4.921875 -34.4375 5.320312 -35.617188 6.125 -36.421875 C 6.9375 -37.234375 8.078125 -37.640625 9.546875 -37.640625 C 11.003906 -37.640625 12.132812 -37.234375 12.9375 -36.421875 C 13.75 -35.617188 14.15625 -34.4375 14.15625 -32.875 L 14.15625 -28.09375 L 13.40625 -28.09375 C 14.113281 -31.125 15.5 -33.421875 17.5625 -34.984375 C 19.632812 -36.554688 22.390625 -37.492188 25.828125 -37.796875 C 26.890625 -37.890625 27.734375 -37.617188 28.359375 -36.984375 C 28.992188 -36.359375 29.359375 -35.390625 29.453125 -34.078125 C 29.554688 -32.816406 29.265625 -31.796875 28.578125 -31.015625 C 27.898438 -30.234375 26.878906 -29.765625 25.515625 -29.609375 L 23.859375 -29.453125 C 20.773438 -29.148438 18.453125 -28.203125 16.890625 -26.609375 C 15.328125 -25.023438 14.546875 -22.796875 14.546875 -19.921875 L 14.546875 -4.234375 C 14.546875 -2.671875 14.140625 -1.472656 13.328125 -0.640625 C 12.523438 0.191406 11.335938 0.609375 9.765625 0.609375 Z M 9.765625 0.609375 "/></g></g></g><g fill="#ffffff" fill-opacity="1"><g transform="translate(330.289277, 70.275749)"><g><path d="M 21.890625 0.75 C 18.609375 0.75 15.867188 0.195312 13.671875 -0.90625 C 11.472656 -2.019531 9.84375 -3.648438 8.78125 -5.796875 C 7.71875 -7.941406 7.1875 -10.601562 7.1875 -13.78125 L 7.1875 -29.921875 L 3.25 -29.921875 C 2.039062 -29.921875 1.109375 -30.234375 0.453125 -30.859375 C -0.203125 -31.492188 -0.53125 -32.363281 -0.53125 -33.46875 C -0.53125 -34.632812 -0.203125 -35.519531 0.453125 -36.125 C 1.109375 -36.726562 2.039062 -37.03125 3.25 -37.03125 L 7.1875 -37.03125 L 7.1875 -43.921875 C 7.1875 -45.492188 7.601562 -46.679688 8.4375 -47.484375 C 9.269531 -48.296875 10.445312 -48.703125 11.96875 -48.703125 C 13.476562 -48.703125 14.632812 -48.296875 15.4375 -47.484375 C 16.25 -46.679688 16.65625 -45.492188 16.65625 -43.921875 L 16.65625 -37.03125 L 24.6875 -37.03125 C 25.894531 -37.03125 26.828125 -36.726562 27.484375 -36.125 C 28.140625 -35.519531 28.46875 -34.632812 28.46875 -33.46875 C 28.46875 -32.363281 28.140625 -31.492188 27.484375 -30.859375 C 26.828125 -30.234375 25.894531 -29.921875 24.6875 -29.921875 L 16.65625 -29.921875 L 16.65625 -14.3125 C 16.65625 -11.882812 17.1875 -10.066406 18.25 -8.859375 C 19.3125 -7.648438 21.03125 -7.046875 23.40625 -7.046875 C 24.257812 -7.046875 25.015625 -7.117188 25.671875 -7.265625 C 26.328125 -7.421875 26.910156 -7.523438 27.421875 -7.578125 C 28.023438 -7.628906 28.523438 -7.4375 28.921875 -7 C 29.328125 -6.570312 29.53125 -5.703125 29.53125 -4.390625 C 29.53125 -3.378906 29.363281 -2.484375 29.03125 -1.703125 C 28.707031 -0.921875 28.117188 -0.378906 27.265625 -0.078125 C 26.609375 0.128906 25.75 0.316406 24.6875 0.484375 C 23.625 0.660156 22.691406 0.75 21.890625 0.75 Z M 21.890625 0.75 "/></g></g></g></svg>