<svg width="61" height="35" viewBox="0 0 61 35" fill="none" xmlns="http://www.w3.org/2000/svg">
<g clip-path="url(#clip0_479_8287)">
<path d="M5.97909e-06 21.5932C0.26475 20.286 1.02589 19.227 1.72084 18.135C5.16252 12.6912 8.60419 7.26392 12.0128 1.80357C12.7739 0.579128 13.7832 0 15.2393 0C26.2262 0.0165465 33.8873 0.0165465 44.8741 0C46.3137 0 47.3396 0.562581 48.1007 1.78702C51.7575 7.61139 55.4308 13.4358 59.1207 19.2601C59.7991 20.3191 60.1135 21.4443 60.1135 22.7018C60.0969 30.1477 60.1135 23.2147 60.1135 30.6607C60.1135 32.9772 58.8725 34.2182 56.556 34.2182C37.9411 34.2182 22.6356 34.2016 4.00426 34.2513C2.03523 34.2513 0.64532 33.639 -0.0165405 31.7197C5.97909e-06 23.5457 5.97909e-06 29.7672 5.97909e-06 21.5932ZM2.11796 26.4248C2.11796 26.673 2.11796 26.855 2.11796 27.037C2.11796 33.0599 2.11796 24.7039 2.11796 30.7269C2.11796 31.7858 2.46544 32.1168 3.54096 32.1168C22.3212 32.1168 37.8088 32.1168 56.5891 32.1168C57.6977 32.1168 58.0121 31.7858 58.0121 30.6772C58.0121 24.6874 58.0121 33.093 58.0121 27.1032C58.0121 26.8881 58.0121 26.673 58.0121 26.4248C57.6646 26.4248 57.4164 26.4248 57.1682 26.4248C41.4325 26.4248 29.0226 26.4248 13.2868 26.4248C13.0387 26.4248 12.7905 26.4413 12.5423 26.4082C12.0128 26.342 11.6487 25.9118 11.6322 25.3823C11.6157 24.8694 11.9797 24.4226 12.4926 24.3234C12.7408 24.2903 12.989 24.3068 13.2372 24.3068C28.9895 24.3068 41.4325 24.3068 57.1847 24.3068C57.4495 24.3068 57.6977 24.3068 57.9624 24.3068C57.9624 23.5622 57.9624 22.8838 57.9624 22.2385C38.2224 22.2385 21.8579 22.2385 2.1676 22.2385C2.1676 22.95 2.1676 23.6119 2.1676 24.3068C2.43234 24.3068 2.66399 24.3068 2.89564 24.3068C4.36828 24.3068 5.82438 24.3068 7.29701 24.3068C7.95887 24.3068 8.37254 24.6543 8.45527 25.2003C8.55455 25.8953 8.09125 26.4082 7.31356 26.4082C5.59272 26.4413 3.90498 26.4248 2.11796 26.4248ZM57.102 20.0709C57.0027 19.8889 56.9696 19.8062 56.92 19.7069C53.3625 14.0645 49.805 8.43872 46.264 2.79636C45.9166 2.25032 45.4698 2.10141 44.8576 2.10141C33.9038 2.11795 26.2428 2.11795 15.289 2.10141C14.6106 2.10141 14.1804 2.33306 13.8163 2.91218C10.3085 8.47181 6.80062 14.0149 3.30931 19.5745C3.21003 19.7234 3.14384 19.8889 3.04456 20.0875C22.1889 20.0709 37.9411 20.0709 57.102 20.0709Z" fill="#B6AA9D"/>
<path d="M27.5334 5.27839C27.5334 5.87407 27.0701 6.35391 26.491 6.33737C25.9118 6.33737 25.432 5.82443 25.4485 5.26184C25.4651 4.69926 25.9284 4.25251 26.4744 4.23596C27.0701 4.23596 27.5334 4.68272 27.5334 5.27839Z" fill="#B6AA9D"/>
<path d="M34.2844 6.33732C33.7052 6.33732 33.2419 5.85748 33.2419 5.2618C33.2419 4.66613 33.7218 4.21937 34.3175 4.23592C34.88 4.25247 35.3268 4.71577 35.3434 5.2618C35.3434 5.84093 34.8635 6.33732 34.2844 6.33732Z" fill="#B6AA9D"/>
<path d="M37.4613 15.8516C37.4613 16.4307 36.9815 16.894 36.3858 16.894C35.8067 16.894 35.3764 16.4638 35.3599 15.8847C35.3433 15.289 35.8067 14.8091 36.3858 14.7926C36.9484 14.7926 37.4613 15.289 37.4613 15.8516Z" fill="#B6AA9D"/>
<path d="M43.1864 5.2618C43.2029 5.85748 42.7396 6.33732 42.1605 6.33732C41.5814 6.33732 41.1015 5.85748 41.1015 5.27835C41.1015 4.71577 41.5483 4.25247 42.1109 4.23592C42.7065 4.21937 43.1698 4.66613 43.1864 5.2618Z" fill="#B6AA9D"/>
<path d="M25.4154 15.8516C25.4154 16.4473 24.9687 16.9106 24.3565 16.894C23.7773 16.894 23.2975 16.3976 23.314 15.8185C23.3306 15.2725 23.8104 14.8091 24.3565 14.7926C24.9356 14.7926 25.4154 15.2725 25.4154 15.8516Z" fill="#B6AA9D"/>
<path d="M17.9364 6.33726C17.3573 6.32071 16.9105 5.82431 16.9271 5.24519C16.9436 4.64951 17.4235 4.2193 18.0192 4.2524C18.5817 4.28549 19.0119 4.74879 19.0119 5.31137C19.0119 5.87395 18.5155 6.3538 17.9364 6.33726Z" fill="#B6AA9D"/>
<path d="M26.491 10.5733C26.491 11.1524 25.9946 11.6322 25.4154 11.6157C24.8363 11.5991 24.373 11.1193 24.3896 10.5236C24.4061 9.96104 24.8529 9.53083 25.4154 9.51428C26.0111 9.53083 26.491 9.99413 26.491 10.5733Z" fill="#B6AA9D"/>
<path d="M35.3599 11.6157C34.7808 11.6322 34.2844 11.1524 34.2844 10.5733C34.2844 10.0107 34.7311 9.54739 35.2937 9.53084C35.8894 9.49775 36.3692 9.92796 36.3858 10.5236C36.4023 11.1193 35.9556 11.6157 35.3599 11.6157Z" fill="#B6AA9D"/>
<path d="M13.7336 16.8939C13.1379 16.8939 12.6746 16.4141 12.6912 15.835C12.7077 15.2558 13.2041 14.776 13.7832 14.7925C14.3458 14.8091 14.776 15.2724 14.7926 15.835C14.7926 16.4472 14.3293 16.9105 13.7336 16.8939Z" fill="#B6AA9D"/>
<path d="M46.3633 14.8091C46.9424 14.8091 47.4223 15.3055 47.4223 15.8681C47.4223 16.4472 46.9424 16.9105 46.3468 16.8939C45.7676 16.8774 45.3374 16.4472 45.3374 15.8681C45.3209 15.2889 45.7842 14.8091 46.3633 14.8091Z" fill="#B6AA9D"/>
<path d="M15.8516 9.53076C16.4472 9.53076 16.9105 9.99406 16.894 10.5732C16.894 11.1523 16.3976 11.6322 15.8185 11.6156C15.2559 11.5991 14.8091 11.1523 14.8091 10.5897C14.8091 9.99406 15.2559 9.53076 15.8516 9.53076Z" fill="#B6AA9D"/>
<path d="M44.2785 11.6156C43.6993 11.6322 43.2195 11.1689 43.2029 10.5732C43.2029 10.0106 43.6166 9.54733 44.1957 9.53078C44.7914 9.49769 45.2713 9.94444 45.2878 10.5236C45.3209 11.1192 44.8741 11.6156 44.2785 11.6156Z" fill="#B6AA9D"/>
</g>
<defs>
<clipPath id="clip0_479_8287">
<rect width="60.13" height="34.2513" fill="white"/>
</clipPath>
</defs>
</svg>
