<svg xmlns="http://www.w3.org/2000/svg" width="45" height="44" viewBox="0 0 45 44" fill="none">
<path d="M22.8631 44C10.7186 44 0.76001 34.1685 0.76001 22C0.76001 9.91209 10.6376 0 22.8631 0C35.0077 0 44.9663 9.8315 44.9663 22C44.9663 34.0879 35.0077 44 22.8631 44ZM22.8631 2.337C12.014 2.337 3.10796 11.1209 3.10796 22C3.10796 32.7985 11.933 41.663 22.8631 41.663C33.7123 41.663 42.6183 32.8791 42.6183 22C42.5374 11.2015 33.7123 2.337 22.8631 2.337Z" fill="white"/>
<path d="M36.0603 18.6962C36.0603 15.5533 33.5504 13.0552 30.3928 13.0552H15.6574C12.4998 13.0552 9.9899 15.5533 9.9899 18.6962V25.546C9.9899 28.6889 12.4998 31.187 15.6574 31.187H30.3928C33.5504 31.187 36.0603 28.6889 36.0603 25.546V18.6962ZM26.7494 22.4032L20.92 25.6266C20.6771 25.7878 20.4342 25.546 20.4342 25.3043V18.6962C20.4342 18.3739 20.6771 18.2127 20.92 18.3739L26.8304 21.7585C27.0733 21.9196 27.0733 22.3226 26.7494 22.4032Z" fill="white"/>
</svg>